<svg width="19" height="18" viewBox="0 0 19 18" fill="none" xmlns="http://www.w3.org/2000/svg">
<path d="M9.22851 0C4.12976 0 0 4.13206 0 9.22851C0 13.3067 2.64397 16.7651 6.30999 17.9841C6.77142 18.071 6.94061 17.7856 6.94061 17.5403C6.94061 17.3211 6.93292 16.7405 6.92907 15.9715C4.36201 16.5283 3.8206 14.7333 3.8206 14.7333C3.40071 13.6682 2.79393 13.3836 2.79393 13.3836C1.95798 12.8115 2.85853 12.823 2.85853 12.823C3.78523 12.8876 4.27203 13.7735 4.27203 13.7735C5.09491 15.1847 6.43227 14.7771 6.95983 14.5411C7.04289 13.9443 7.28053 13.5375 7.54431 13.3067C5.49481 13.076 3.34072 12.2824 3.34072 8.74632C3.34072 7.73887 3.69833 6.916 4.29049 6.27C4.18667 6.03698 3.8752 5.09875 4.37124 3.82752C4.37124 3.82752 5.14412 3.57989 6.90908 4.77345C7.64736 4.56811 8.43178 4.4666 9.2162 4.46198C10.0006 4.4666 10.7851 4.56811 11.5233 4.77345C13.2767 3.57989 14.0496 3.82752 14.0496 3.82752C14.5457 5.09875 14.2342 6.03698 14.1419 6.27C14.7302 6.916 15.0878 7.73887 15.0878 8.74632C15.0878 12.2916 12.9307 13.0722 10.8773 13.299C11.2003 13.5759 11.5003 14.1419 11.5003 15.0063C11.5003 16.2414 11.4887 17.2335 11.4887 17.5334C11.4887 17.7756 11.6502 18.064 12.1232 17.9718C15.8154 16.7613 18.457 13.3006 18.457 9.22851C18.457 4.13206 14.325 0 9.22851 0Z" fill="#ECF8FF"/>
</svg>
